<svg viewBox="0 0 505 187" fill="none" xmlns="http://www.w3.org/2000/svg">
<path d="M100.176 5.85257C124.036 63.8771 149.746 161.659 61.7105 88.5895L86.704 180.597L202.812 180.586L229.282 121.389L100.176 5.85257Z" fill="#957FEF" stroke="#957FEF"/>
<path d="M83 78L110 25C182.833 69.3333 305.2 153.8 212 137C118.8 120.2 151.833 159 180 180.5C154.5 173.833 102.9 160.5 100.5 160.5C98.1 160.5 87.8333 105.5 83 78Z" fill="#D9EF7F" stroke="#D9EF7F"/>
<path d="M106.22 142.482L67.1616 66.8714L218.911 32.4003C209.932 88.6751 189.205 187.5 178.129 132.6C167.052 77.7008 125.574 116.313 106.22 142.482Z" fill="#EF7FD9" stroke="#EF7FD9"/>
<path d="M5.375 55.375C8.04167 55.4583 10.375 55.5 12.375 55.5C14.375 55.4167 16 55.375 17.25 55.375H20.875C21.7917 55.2917 22.9167 55.25 24.25 55.25C25.4167 55.25 26.8333 55.25 28.5 55.25C30.1667 55.25 32.0833 55.2917 34.25 55.375C34.9167 57.7083 35.6667 60 36.5 62.25C37.4167 64.4167 38.2083 66.375 38.875 68.125C39.7083 70.2083 40.5417 72.1667 41.375 74C42.2083 75.8333 43.2083 78.0417 44.375 80.625C45.375 82.7917 46.5833 85.4583 48 88.625C49.4167 91.7083 51.0833 95.25 53 99.25C53.9167 96.6667 54.75 94.2917 55.5 92.125C56.3333 89.9583 57.0417 88.0833 57.625 86.5C58.2917 84.6667 58.8333 83 59.25 81.5C59.6667 80 60.125 78.1667 60.625 76C61.0417 74.1667 61.5 71.9583 62 69.375C62.5833 66.7917 63.1667 63.7917 63.75 60.375C66.1667 60.375 68.3333 60.375 70.25 60.375C72.1667 60.375 73.8333 60.3333 75.25 60.25C76.8333 60.25 78.25 60.2083 79.5 60.125C80.8333 60.125 82.625 60.0417 84.875 59.875C86.7917 59.7083 89.3333 59.5833 92.5 59.5C95.75 59.3333 99.75 59.125 104.5 58.875C102.75 60.125 101.333 61.375 100.25 62.625C99.25 63.7917 98.4583 64.8333 97.875 65.75C97.2083 66.8333 96.7917 67.875 96.625 68.875C96.4583 69.7083 96.2917 71.625 96.125 74.625C96.0417 77.625 95.9167 81.2083 95.75 85.375C95.6667 89.4583 95.5833 93.8333 95.5 98.5C95.5 103.167 95.5417 107.583 95.625 111.75C95.7083 115.917 95.8333 119.542 96 122.625C96.25 125.625 96.5833 127.542 97 128.375C97.5833 129.375 98.375 130.542 99.375 131.875C100.292 133.042 101.458 134.375 102.875 135.875C104.375 137.375 106.333 139.042 108.75 140.875C104.917 141.042 101.708 141.167 99.125 141.25C96.625 141.333 94.5417 141.417 92.875 141.5C90.9583 141.583 89.4167 141.625 88.25 141.625C87 141.625 85.2917 141.667 83.125 141.75C81.2083 141.833 78.6667 141.958 75.5 142.125C72.3333 142.208 68.25 142.375 63.25 142.625C64.4167 141.292 65.5 139.958 66.5 138.625C67.5 137.292 68.3333 136.083 69 135C69.8333 133.75 70.5417 132.542 71.125 131.375C71.7083 129.792 72.1667 126.917 72.5 122.75C72.8333 119.167 73.0833 114.042 73.25 107.375C73.4167 100.625 73.4167 91.5833 73.25 80.25C71.6667 82.8333 70.25 85.4167 69 88C67.8333 90.5 66.7917 92.7917 65.875 94.875C64.875 97.2917 63.9583 99.625 63.125 101.875C62.2917 104.208 61.4167 106.792 60.5 109.625C59.6667 112.042 58.6667 114.917 57.5 118.25C56.4167 121.583 55.1667 125.25 53.75 129.25L49 129.5C48.3333 126.167 47.6667 123.167 47 120.5C46.3333 117.75 45.6667 115.417 45 113.5C44.25 111.25 43.5 109.25 42.75 107.5C41.9167 105.75 41 103.792 40 101.625C39.0833 99.7917 37.9583 97.625 36.625 95.125C35.375 92.625 33.9167 89.8333 32.25 86.75C31.4167 95.25 30.9167 102.167 30.75 107.5C30.5833 112.75 30.5833 116.833 30.75 119.75C30.9167 123.25 31.1667 125.792 31.5 127.375C32 128.792 32.7917 130.375 33.875 132.125C34.7917 133.625 36.0417 135.417 37.625 137.5C39.2917 139.5 41.4167 141.75 44 144.25C42.1667 144.25 40.25 144.25 38.25 144.25C36.25 144.25 34.4167 144.292 32.75 144.375C30.75 144.458 28.7917 144.5 26.875 144.5C24.875 144.583 22.5417 144.708 19.875 144.875C17.5417 145.042 14.75 145.208 11.5 145.375C8.25 145.542 4.5 145.833 0.25 146.25C2.08333 145.083 3.58333 143.958 4.75 142.875C5.91667 141.708 6.83333 140.667 7.5 139.75C8.33333 138.667 8.95833 137.583 9.375 136.5C9.625 135.833 9.83333 134.375 10 132.125C10.25 129.875 10.4583 127.125 10.625 123.875C10.875 120.625 11.0417 117 11.125 113C11.2917 109 11.4167 104.958 11.5 100.875C11.6667 96.7083 11.7917 92.6667 11.875 88.75C11.9583 84.75 12 81.1667 12 78C12.0833 74.75 12.125 72.0417 12.125 69.875C12.125 67.7083 12.125 66.3333 12.125 65.75C11.875 64.5 11.5 63.25 11 62C10.5833 60.9167 9.91667 59.7917 9 58.625C8.08333 57.4583 6.875 56.375 5.375 55.375ZM102.375 81.125C104.042 81.375 105.542 81.5833 106.875 81.75C108.125 81.8333 109.25 81.9167 110.25 82C111.333 82.0833 112.375 82.125 113.375 82.125C114.292 82.125 115.458 82.0833 116.875 82C118.042 81.9167 119.542 81.8333 121.375 81.75C123.292 81.5833 125.542 81.375 128.125 81.125C127.958 81.4583 127.625 82.5 127.125 84.25C126.625 85.9167 126.125 88 125.625 90.5C125.125 92.9167 124.667 95.625 124.25 98.625C123.917 101.542 123.75 104.458 123.75 107.375C123.833 110.208 124.208 112.917 124.875 115.5C125.542 118 126.625 120.042 128.125 121.625C131.292 124.875 134.083 126.833 136.5 127.5C139 128.167 141.167 128.083 143 127.25C144.833 126.417 146.333 125.167 147.5 123.5C148.667 121.833 149.5 120.292 150 118.875C151.25 115.042 152 111 152.25 106.75C152.417 103.083 152.125 99 151.375 94.5C150.625 90 148.833 85.4167 146 80.75C148.167 80.9167 150.042 81.0417 151.625 81.125C153.208 81.2083 154.583 81.2917 155.75 81.375C157.083 81.4583 158.25 81.5417 159.25 81.625C160.167 81.7083 161.25 81.7083 162.5 81.625C163.583 81.625 164.875 81.5833 166.375 81.5C167.958 81.3333 169.708 81.1667 171.625 81C171.958 89.1667 172.25 96.4583 172.5 102.875C172.75 109.208 172.917 114.833 173 119.75C173.167 124.583 173.25 128.792 173.25 132.375C173.25 135.875 173.25 138.833 173.25 141.25C173.167 147 172.917 150.792 172.5 152.625C171.833 155.208 170.625 157.792 168.875 160.375C167.208 162.958 165.083 165.25 162.5 167.25C159.917 169.333 156.917 170.917 153.5 172C150.167 173.167 146.5 173.583 142.5 173.25C138.583 172.917 135.458 172.375 133.125 171.625C130.875 170.958 129.083 170.167 127.75 169.25C126.5 168.333 125.583 167.375 125 166.375C124.5 165.375 124.125 164.333 123.875 163.25C123.625 162.25 123.375 161.292 123.125 160.375C122.875 159.458 122.375 158.667 121.625 158C120.708 157.25 119.75 156.5 118.75 155.75C117.833 155.083 116.833 154.417 115.75 153.75C114.75 153.083 113.75 152.542 112.75 152.125L139.375 150.625C138.625 151.625 138.083 152.542 137.75 153.375C137.417 154.208 137.208 154.917 137.125 155.5C137.042 156.25 137.083 156.875 137.25 157.375C137.583 158.375 138.167 159.458 139 160.625C139.917 161.875 141.083 162.833 142.5 163.5C143.917 164.25 145.583 164.5 147.5 164.25C149.5 164 151.75 162.958 154.25 161.125C156.333 159.542 158.083 157 159.5 153.5C160.667 150.5 161.583 146.292 162.25 140.875C162.917 135.458 162.792 128.333 161.875 119.5C160.375 124.667 158.333 128.625 155.75 131.375C153.167 134.125 150.583 136.125 148 137.375C145 138.875 141.875 139.667 138.625 139.75C134.292 139.583 130.583 139.042 127.5 138.125C124.417 137.125 121.875 135.792 119.875 134.125C117.875 132.458 116.292 130.5 115.125 128.25C114.042 125.917 113.25 123.333 112.75 120.5C112.25 117.667 112 114.833 112 112C112 109.083 112 106.375 112 103.875C112.083 101.375 112.125 99.125 112.125 97.125C112.125 95.0417 111.917 93.375 111.5 92.125C111 90.875 110.333 89.625 109.5 88.375C108.833 87.2917 107.917 86.125 106.75 84.875C105.5 83.5417 104.042 82.2917 102.375 81.125ZM179.125 55.375C181.792 55.4583 184.125 55.5 186.125 55.5C188.125 55.4167 189.75 55.375 191 55.375H194.625C195.542 55.2917 196.667 55.25 198 55.25C199.167 55.25 200.583 55.25 202.25 55.25C203.917 55.25 205.833 55.2917 208 55.375C208.667 57.7083 209.417 60 210.25 62.25C211.167 64.4167 211.958 66.375 212.625 68.125C213.458 70.2083 214.292 72.1667 215.125 74C215.958 75.8333 216.958 78.0417 218.125 80.625C219.125 82.7917 220.333 85.4583 221.75 88.625C223.167 91.7083 224.833 95.25 226.75 99.25C227.667 96.6667 228.5 94.2917 229.25 92.125C230.083 89.9583 230.792 88.0833 231.375 86.5C232.042 84.6667 232.583 83 233 81.5C233.417 80 233.875 78.1667 234.375 76C234.792 74.1667 235.25 71.9583 235.75 69.375C236.333 66.7917 236.917 63.7917 237.5 60.375C239.917 60.375 242.083 60.375 244 60.375C245.917 60.375 247.583 60.3333 249 60.25C250.583 60.25 252 60.2083 253.25 60.125C254.583 60.125 256.375 60.0417 258.625 59.875C260.542 59.7083 263.083 59.5833 266.25 59.5C269.5 59.3333 273.5 59.125 278.25 58.875C276.5 60.125 275.083 61.375 274 62.625C273 63.7917 272.208 64.8333 271.625 65.75C270.958 66.8333 270.542 67.875 270.375 68.875C270.208 69.7083 270.042 71.625 269.875 74.625C269.792 77.625 269.667 81.2083 269.5 85.375C269.417 89.4583 269.333 93.8333 269.25 98.5C269.25 103.167 269.292 107.583 269.375 111.75C269.458 115.917 269.583 119.542 269.75 122.625C270 125.625 270.333 127.542 270.75 128.375C271.333 129.375 272.125 130.542 273.125 131.875C274.042 133.042 275.208 134.375 276.625 135.875C278.125 137.375 280.083 139.042 282.5 140.875C278.667 141.042 275.458 141.167 272.875 141.25C270.375 141.333 268.292 141.417 266.625 141.5C264.708 141.583 263.167 141.625 262 141.625C260.75 141.625 259.042 141.667 256.875 141.75C254.958 141.833 252.417 141.958 249.25 142.125C246.083 142.208 242 142.375 237 142.625C238.167 141.292 239.25 139.958 240.25 138.625C241.25 137.292 242.083 136.083 242.75 135C243.583 133.75 244.292 132.542 244.875 131.375C245.458 129.792 245.917 126.917 246.25 122.75C246.583 119.167 246.833 114.042 247 107.375C247.167 100.625 247.167 91.5833 247 80.25C245.417 82.8333 244 85.4167 242.75 88C241.583 90.5 240.542 92.7917 239.625 94.875C238.625 97.2917 237.708 99.625 236.875 101.875C236.042 104.208 235.167 106.792 234.25 109.625C233.417 112.042 232.417 114.917 231.25 118.25C230.167 121.583 228.917 125.25 227.5 129.25L222.75 129.5C222.083 126.167 221.417 123.167 220.75 120.5C220.083 117.75 219.417 115.417 218.75 113.5C218 111.25 217.25 109.25 216.5 107.5C215.667 105.75 214.75 103.792 213.75 101.625C212.833 99.7917 211.708 97.625 210.375 95.125C209.125 92.625 207.667 89.8333 206 86.75C205.167 95.25 204.667 102.167 204.5 107.5C204.333 112.75 204.333 116.833 204.5 119.75C204.667 123.25 204.917 125.792 205.25 127.375C205.75 128.792 206.542 130.375 207.625 132.125C208.542 133.625 209.792 135.417 211.375 137.5C213.042 139.5 215.167 141.75 217.75 144.25C215.917 144.25 214 144.25 212 144.25C210 144.25 208.167 144.292 206.5 144.375C204.5 144.458 202.542 144.5 200.625 144.5C198.625 144.583 196.292 144.708 193.625 144.875C191.292 145.042 188.5 145.208 185.25 145.375C182 145.542 178.25 145.833 174 146.25C175.833 145.083 177.333 143.958 178.5 142.875C179.667 141.708 180.583 140.667 181.25 139.75C182.083 138.667 182.708 137.583 183.125 136.5C183.375 135.833 183.583 134.375 183.75 132.125C184 129.875 184.208 127.125 184.375 123.875C184.625 120.625 184.792 117 184.875 113C185.042 109 185.167 104.958 185.25 100.875C185.417 96.7083 185.542 92.6667 185.625 88.75C185.708 84.75 185.75 81.1667 185.75 78C185.833 74.75 185.875 72.0417 185.875 69.875C185.875 67.7083 185.875 66.3333 185.875 65.75C185.625 64.5 185.25 63.25 184.75 62C184.333 60.9167 183.667 59.7917 182.75 58.625C181.833 57.4583 180.625 56.375 179.125 55.375ZM311.125 124.875C313.458 124.875 315.625 124.625 317.625 124.125C319.292 123.708 320.875 123.042 322.375 122.125C323.958 121.125 325 119.667 325.5 117.75C327.167 118.083 328.583 118.375 329.75 118.625C330.917 118.792 331.917 118.958 332.75 119.125C333.667 119.375 334.458 119.542 335.125 119.625C335.792 119.792 336.583 119.958 337.5 120.125C338.333 120.292 339.333 120.5 340.5 120.75C341.75 120.917 343.208 121.167 344.875 121.5C343.625 121.333 342.333 121.458 341 121.875C339.75 122.292 338.542 122.75 337.375 123.25C336.042 123.833 334.792 124.542 333.625 125.375C332.875 125.875 332 126.625 331 127.625C330.083 128.625 328.75 129.583 327 130.5C325.25 131.417 322.917 132.208 320 132.875C317.167 133.458 313.5 133.667 309 133.5C303.583 133.333 299.042 132.375 295.375 130.625C291.708 128.792 288.75 126.583 286.5 124C284.25 121.333 282.625 118.458 281.625 115.375C280.625 112.292 280.083 109.417 280 106.75C279.917 104.083 280.708 101.292 282.375 98.375C284.042 95.4583 286.375 92.7917 289.375 90.375C292.458 87.9583 296.167 86 300.5 84.5C304.833 82.9167 309.583 82.125 314.75 82.125C317.75 82.125 320.5 82.5 323 83.25C325.583 83.9167 327.917 84.8333 330 86C332.167 87.1667 334.042 88.5 335.625 90C337.208 91.4167 338.542 92.875 339.625 94.375C340.708 95.9583 341.625 97.625 342.375 99.375C343.042 100.875 343.583 102.583 344 104.5C344.417 106.417 344.542 108.375 344.375 110.375C338.042 110.542 332.917 110.667 329 110.75C325.167 110.833 322.167 110.875 320 110.875H314.375H310.125C308.625 110.875 306.667 110.917 304.25 111C301.833 111.083 298.875 111.208 295.375 111.375C295.792 114.708 296.833 117.292 298.5 119.125C300.25 120.875 302.083 122.208 304 123.125C306.167 124.125 308.542 124.708 311.125 124.875ZM299.875 102.375C302.542 102.542 304.75 102.667 306.5 102.75C308.333 102.833 309.833 102.917 311 103C312.25 103.083 313.25 103.125 314 103.125H317.125C319.208 103.125 323.083 103 328.75 102.75C328.5 99.0833 327.708 96.2917 326.375 94.375C325.125 92.4583 323.792 91.0417 322.375 90.125C320.708 89.125 318.875 88.5417 316.875 88.375C311.458 88.4583 307.417 89.5833 304.75 91.75C302.167 93.9167 300.542 97.4583 299.875 102.375ZM358.75 94.375C359.167 93.875 359.417 92.9583 359.5 91.625C359.667 90.2083 360 88.625 360.5 86.875C361.083 85.125 362.042 83.2917 363.375 81.375C364.708 79.4583 366.875 77.6667 369.875 76C372.792 74.3333 375.625 73.3333 378.375 73C381.125 72.6667 383.75 72.7917 386.25 73.375C388.75 73.9583 391.083 74.875 393.25 76.125C395.5 77.375 397.542 78.75 399.375 80.25C400.625 81.25 401.625 82.7083 402.375 84.625C403.125 86.4583 403.708 88.5417 404.125 90.875C404.542 93.2083 404.833 95.6667 405 98.25C405.25 100.75 405.417 103.208 405.5 105.625C405.583 107.958 405.625 110.125 405.625 112.125C405.708 114.042 405.875 115.625 406.125 116.875C406.458 118.708 407.042 120.292 407.875 121.625C408.708 122.875 409.625 123.958 410.625 124.875C411.625 125.708 412.625 126.375 413.625 126.875C414.625 127.375 415.5 127.75 416.25 128C416.75 128.25 417.208 128.417 417.625 128.5C418.458 128.833 419.042 128.833 419.375 128.5C418.875 129.667 418.417 130.667 418 131.5C417.583 132.333 417.25 133.042 417 133.625C416.667 134.292 416.375 134.833 416.125 135.25C415.875 135.75 415.583 136.208 415.25 136.625C415 137.042 414.667 137.5 414.25 138C413.833 138.5 413.417 139.042 413 139.625C411.917 139.208 410.875 138.708 409.875 138.125C408.958 137.542 408.125 137 407.375 136.5C406.458 135.917 405.625 135.333 404.875 134.75C404.125 134.167 403.417 133.5 402.75 132.75C402.167 132.083 401.542 131.375 400.875 130.625C400.292 129.875 399.792 129.042 399.375 128.125C398.875 129.208 397.667 130.75 395.75 132.75C393.917 134.75 391.5 136.583 388.5 138.25C385.5 139.833 382 140.958 378 141.625C374.083 142.292 369.75 141.833 365 140.25C362.917 139.583 360.958 138.625 359.125 137.375C357.292 136.042 355.708 134.458 354.375 132.625C353.125 130.792 352.208 128.708 351.625 126.375C351.125 123.958 351.167 121.292 351.75 118.375C352.333 115.458 353.375 113 354.875 111C356.375 109 358.167 107.375 360.25 106.125C362.333 104.875 364.667 103.917 367.25 103.25C369.833 102.583 372.5 102.125 375.25 101.875C377.417 101.792 379.583 101.917 381.75 102.25C383.583 102.583 385.5 103.208 387.5 104.125C389.5 104.958 391.208 106.25 392.625 108C392.542 103.583 392.375 100.083 392.125 97.5C391.958 94.8333 391.792 92.7917 391.625 91.375C391.292 89.7083 391 88.5417 390.75 87.875C390.333 87.2917 389.875 86.625 389.375 85.875C388.958 85.125 388.417 84.4583 387.75 83.875C387.083 83.2083 386.25 82.6667 385.25 82.25C384.25 81.8333 383.083 81.6667 381.75 81.75C380.333 81.8333 379.208 82.2083 378.375 82.875C377.542 83.5417 376.875 84.3333 376.375 85.25C375.958 86.0833 375.708 87 375.625 88C375.542 89 375.583 89.875 375.75 90.625C375.917 91.125 376.167 91.6667 376.5 92.25C376.833 92.75 377.292 93.2917 377.875 93.875C378.458 94.4583 379.25 94.9583 380.25 95.375C378.333 95.625 376.625 95.8333 375.125 96C373.625 96.0833 372.333 96.2083 371.25 96.375C370 96.5417 368.917 96.6667 368 96.75C367.083 96.8333 366 97 364.75 97.25C363.667 97.4167 362.333 97.625 360.75 97.875C359.167 98.125 357.333 98.4583 355.25 98.875C355.75 98.2917 356.208 97.75 356.625 97.25C357.042 96.6667 357.417 96.1667 357.75 95.75C358.083 95.25 358.417 94.7917 358.75 94.375ZM377.5 109.25C376 109.333 374.5 109.708 373 110.375C371.5 110.958 370.167 111.833 369 113C367.833 114.083 366.833 115.375 366 116.875C365.25 118.292 364.875 119.875 364.875 121.625C364.875 123.375 365.292 124.917 366.125 126.25C367.042 127.5 368.208 128.542 369.625 129.375C371.125 130.208 372.708 130.708 374.375 130.875C376.125 131.042 377.833 130.875 379.5 130.375C381.083 129.792 382.583 128.875 384 127.625C385.417 126.292 386.625 124.875 387.625 123.375C388.625 121.792 389.333 120.25 389.75 118.75C390.167 117.167 390.208 115.875 389.875 114.875C389.208 112.708 387.708 111.208 385.375 110.375C383.042 109.458 380.417 109.083 377.5 109.25ZM421 148.5C421.833 147.25 422.5 146.083 423 145C423.5 143.917 423.917 143 424.25 142.25C424.583 141.333 424.833 140.5 425 139.75C425.083 139.25 425.125 137.792 425.125 135.375C425.125 132.958 425.042 129.917 424.875 126.25C424.792 122.583 424.667 118.458 424.5 113.875C424.417 109.292 424.25 104.625 424 99.875C423.833 95.125 423.625 90.5 423.375 86C423.208 81.5 423.042 77.4583 422.875 73.875C422.708 70.2083 422.542 67.2083 422.375 64.875C422.208 62.5417 422.083 61.2083 422 60.875C421.833 60.375 421.542 59.875 421.125 59.375C420.292 58.375 418.875 57.4167 416.875 56.5C421.125 55.4167 424.375 54.5417 426.625 53.875C427.958 53.5417 429.125 53.2083 430.125 52.875C431.042 52.5417 431.958 52.2083 432.875 51.875C433.625 51.5417 434.458 51.1667 435.375 50.75C436.292 50.25 437.125 49.7083 437.875 49.125C437.458 51.5417 437.125 53.875 436.875 56.125C436.625 58.375 436.417 60.4583 436.25 62.375C436.083 64.5417 436 66.625 436 68.625C435.583 72.7083 435.333 77.1667 435.25 82C435.25 86.75 435.292 91.5833 435.375 96.5C435.458 101.417 435.625 106.208 435.875 110.875C436.125 115.542 436.375 119.792 436.625 123.625C436.958 127.375 437.25 130.583 437.5 133.25C437.833 135.833 438.083 137.5 438.25 138.25C438.583 139.5 438.917 140.708 439.25 141.875C439.583 142.875 439.958 143.917 440.375 145C440.792 146.167 441.292 147.083 441.875 147.75H429.75C428.667 147.75 427.625 147.792 426.625 147.875C425.708 147.958 424.75 148.042 423.75 148.125C422.75 148.208 421.833 148.333 421 148.5ZM501.5 73.625C500.75 75.4583 500.083 77.125 499.5 78.625C499 80.125 498.542 81.4583 498.125 82.625C497.708 83.9583 497.333 85.125 497 86.125C496.667 87.2917 496.292 88.625 495.875 90.125C495.458 91.4583 494.917 93.125 494.25 95.125C493.667 97.0417 492.958 99.3333 492.125 102C491.458 98 490.25 94.8333 488.5 92.5C486.75 90.0833 484.958 88.2083 483.125 86.875C480.958 85.375 478.625 84.2917 476.125 83.625C471.625 82.875 468.375 82.9583 466.375 83.875C464.375 84.7917 463.042 85.9583 462.375 87.375C462.042 87.9583 461.667 88.7083 461.25 89.625C460.917 90.4583 460.625 91.3333 460.375 92.25C460.208 93.1667 460.167 94.0833 460.25 95C460.333 95.9167 460.708 96.6667 461.375 97.25C461.792 97.6667 462.875 98.25 464.625 99C466.375 99.6667 468.458 100.458 470.875 101.375C473.375 102.208 476 103.125 478.75 104.125C481.583 105.125 484.25 106.125 486.75 107.125C489.25 108.125 491.417 109.125 493.25 110.125C495.083 111.125 496.292 112.042 496.875 112.875C497.375 113.708 497.917 114.833 498.5 116.25C499.167 117.583 499.625 119.083 499.875 120.75C500.208 122.333 500.292 124 500.125 125.75C500.042 127.417 499.583 129.083 498.75 130.75C497.917 132.417 496.583 133.958 494.75 135.375C493 136.792 490.625 137.958 487.625 138.875C484.125 139.958 480.75 140.25 477.5 139.75C474.25 139.25 471.25 138.5 468.5 137.5C465.833 136.5 463.5 135.542 461.5 134.625C459.5 133.625 458.083 133.208 457.25 133.375C456.333 133.542 455.292 134 454.125 134.75C452.958 135.5 451.833 136.292 450.75 137.125C449.75 137.875 448.875 138.583 448.125 139.25C447.375 139.833 447 140.042 447 139.875C447 139.708 447.125 139.208 447.375 138.375C447.708 137.542 448.042 136.542 448.375 135.375C448.792 134.125 449.167 132.792 449.5 131.375C449.917 129.875 450.208 128.458 450.375 127.125C450.542 126.042 450.75 124.708 451 123.125C451.167 121.708 451.375 120 451.625 118C451.958 115.917 452.333 113.417 452.75 110.5C453.167 112.667 453.75 114.542 454.5 116.125C455.333 117.708 456.125 119.083 456.875 120.25C457.792 121.583 458.667 122.708 459.5 123.625C460.75 124.792 462.208 125.875 463.875 126.875C465.625 127.875 467.375 128.75 469.125 129.5C470.875 130.167 472.542 130.583 474.125 130.75C475.708 130.917 477.042 130.75 478.125 130.25C479.208 129.75 480.125 128.833 480.875 127.5C481.708 126.167 482.292 124.708 482.625 123.125C482.958 121.542 483.083 120.042 483 118.625C482.917 117.125 482.542 115.917 481.875 115C481.375 114.417 480.208 113.667 478.375 112.75C476.625 111.833 474.5 110.833 472 109.75C469.583 108.667 467 107.542 464.25 106.375C461.583 105.208 459.042 104.042 456.625 102.875C454.292 101.625 452.333 100.458 450.75 99.375C449.25 98.2083 448.417 97.1667 448.25 96.25C448.083 94.9167 447.958 93.4583 447.875 91.875C447.792 90.2083 447.875 88.5833 448.125 87C448.458 85.3333 449.042 83.75 449.875 82.25C450.792 80.75 452.125 79.5 453.875 78.5C455.042 77.8333 456.583 77.3333 458.5 77C460.417 76.6667 462.542 76.5 464.875 76.5C467.208 76.4167 469.625 76.5 472.125 76.75C474.625 76.9167 477 77.1667 479.25 77.5C481.583 77.75 483.667 78.0833 485.5 78.5C487.417 78.9167 488.875 79.2917 489.875 79.625C491.042 80.0417 492.292 80.0833 493.625 79.75C494.792 79.5 496.042 78.9583 497.375 78.125C498.708 77.2917 500.083 75.7917 501.5 73.625Z" fill="#141414"/>
</svg>
